{
  "accessors": [
    {
      "bufferView": 2,
      "componentType": 5126,
      "count": 1528,
      "max": [
        3.5576705932617188,
        15.370912551879883,
        2.6065673828125
      ],
      "min": [
        -3.4486193656921387,
        -0.05720329284667969,
        -3.4294910430908203
      ],
      "type": "VEC3"
    },
    {
      "bufferView": 2,
      "byteOffset": 18336,
      "componentType": 5126,
      "count": 1528,
      "max": [
        0.9999999403953552,
        1.0,
        1.0
      ],
      "min": [
        -0.9999999403953552,
        -1.0,
        -0.9999999403953552
      ],
      "type": "VEC3"
    },
    {
      "bufferView": 3,
      "componentType": 5126,
      "count": 1528,
      "max": [
        1.0,
        1.0,
        1.0,
        1.0
      ],
      "min": [
        -0.9999999403953552,
        -1.0,
        -1.0,
        -1.0
      ],
      "type": "VEC4"
    },
    {
      "bufferView": 1,
      "componentType": 5126,
      "count": 1528,
      "max": [
        0.9831040501594543,
        0.99042809009552
      ],
      "min": [
        0.011572128161787987,
        0.019229041412472725
      ],
      "type": "VEC2"
    },
    {
      "bufferView": 1,
      "byteOffset": 12224,
      "componentType": 5126,
      "count": 1528,
      "max": [
        0.9831040501594543,
        0.99042809009552
      ],
      "min": [
        0.011572128161787987,
        0.019229041412472725
      ],
      "type": "VEC2"
    },
    {
      "bufferView": 1,
      "byteOffset": 24448,
      "componentType": 5126,
      "count": 1528,
      "max": [
        0.9831040501594543,
        0.99042809009552
      ],
      "min": [
        0.011572128161787987,
        0.019229041412472725
      ],
      "type": "VEC2"
    },
    {
      "bufferView": 1,
      "byteOffset": 36672,
      "componentType": 5126,
      "count": 1528,
      "max": [
        0.9831040501594543,
        0.99042809009552
      ],
      "min": [
        0.011572128161787987,
        0.019229041412472725
      ],
      "type": "VEC2"
    },
    {
      "bufferView": 0,
      "componentType": 5125,
      "count": 3255,
      "type": "SCALAR"
    },
    {
      "bufferView": 2,
      "byteOffset": 36672,
      "componentType": 5126,
      "count": 13573,
      "max": [
        4.970523357391357,
        14.706762313842773,
        3.2987213134765625
      ],
      "min": [
        -4.898863315582275,
        10.968281745910645,
        -5.158016204833984
      ],
      "type": "VEC3"
    },
    {
      "bufferView": 2,
      "byteOffset": 199548,
      "componentType": 5126,
      "count": 13573,
      "max": [
        0.999998927116394,
        1.0,
        1.0
      ],
      "min": [
        -0.999998927116394,
        -1.0,
        -0.9999975562095642
      ],
      "type": "VEC3"
    },
    {
      "bufferView": 3,
      "byteOffset": 24448,
      "componentType": 5126,
      "count": 13573,
      "max": [
        1.0,
        1.0,
        1.0,
        1.0
      ],
      "min": [
        -0.9999999403953552,
        -1.0,
        -1.0,
        -1.0
      ],
      "type": "VEC4"
    },
    {
      "bufferView": 1,
      "byteOffset": 48896,
      "componentType": 5126,
      "count": 13573,
      "max": [
        0.9826767444610596,
        0.99022376537323
      ],
      "min": [
        0.026506775990128517,
        0.010236848145723343
      ],
      "type": "VEC2"
    },
    {
      "bufferView": 1,
      "byteOffset": 157480,
      "componentType": 5126,
      "count": 13573,
      "max": [
        0.9826767444610596,
        0.99022376537323
      ],
      "min": [
        0.026506775990128517,
        0.010236848145723343
      ],
      "type": "VEC2"
    },
    {
      "bufferView": 1,
      "byteOffset": 266064,
      "componentType": 5126,
      "count": 13573,
      "max": [
        0.9826767444610596,
        0.99022376537323
      ],
      "min": [
        0.026506775990128517,
        0.010236848145723343
      ],
      "type": "VEC2"
    },
    {
      "bufferView": 1,
      "byteOffset": 374648,
      "componentType": 5126,
      "count": 13573,
      "max": [
        0.9826767444610596,
        0.99022376537323
      ],
      "min": [
        0.026506775990128517,
        0.010236848145723343
      ],
      "type": "VEC2"
    },
    {
      "bufferView": 0,
      "byteOffset": 13020,
      "componentType": 5125,
      "count": 42306,
      "type": "SCALAR"
    },
    {
      "bufferView": 2,
      "byteOffset": 362424,
      "componentType": 5126,
      "count": 38677,
      "max": [
        4.6369452476501465,
        23.734268188476563,
        3.0688509941101074
      ],
      "min": [
        -3.014665365219116,
        0.11735862493515015,
        -3.7417564392089844
      ],
      "type": "VEC3"
    },
    {
      "bufferView": 2,
      "byteOffset": 826548,
      "componentType": 5126,
      "count": 38677,
      "max": [
        1.0,
        1.0,
        1.0
      ],
      "min": [
        -1.0,
        -1.0,
        -1.0
      ],
      "type": "VEC3"
    },
    {
      "bufferView": 3,
      "byteOffset": 241616,
      "componentType": 5126,
      "count": 38677,
      "max": [
        1.0,
        1.0,
        1.0,
        1.0
      ],
      "min": [
        -1.0,
        -1.0,
        -1.0,
        -1.0
      ],
      "type": "VEC4"
    },
    {
      "bufferView": 1,
      "byteOffset": 483232,
      "componentType": 5126,
      "count": 38677,
      "max": [
        0.9880915880203247,
        0.9839820861816406
      ],
      "min": [
        0.014320715330541134,
        0.02108895778656006
      ],
      "type": "VEC2"
    },
    {
      "bufferView": 1,
      "byteOffset": 792648,
      "componentType": 5126,
      "count": 38677,
      "max": [
        0.9880915880203247,
        0.9839820861816406
      ],
      "min": [
        0.014320715330541134,
        0.02108895778656006
      ],
      "type": "VEC2"
    },
    {
      "bufferView": 1,
      "byteOffset": 1102064,
      "componentType": 5126,
      "count": 38677,
      "max": [
        0.9880915880203247,
        0.9839820861816406
      ],
      "min": [
        0.014320715330541134,
        0.02108895778656006
      ],
      "type": "VEC2"
    },
    {
      "bufferView": 1,
      "byteOffset": 1411480,
      "componentType": 5126,
      "count": 38677,
      "max": [
        0.9880915880203247,
        0.9839820861816406
      ],
      "min": [
        0.014320715330541134,
        0.02108895778656006
      ],
      "type": "VEC2"
    },
    {
      "bufferView": 0,
      "byteOffset": 182244,
      "componentType": 5125,
      "count": 158208,
      "type": "SCALAR"
    }
  ],
  "asset": {
    "extras": {
      "author": "Glowbox 3D (https://sketchfab.com/ra3id)",
      "license": "SKETCHFAB Standard (https://sketchfab.com/licenses)",
      "source": "https://sketchfab.com/3d-models/futuristic-aged-billboard-15d4ecd3b7c04e29b8c470987546ae77",
      "title": "Futuristic Aged Billboard"
    },
    "generator": "Sketchfab-12.67.0",
    "version": "2.0"
  },
  "bufferViews": [
    {
      "buffer": 0,
      "byteLength": 815076,
      "name": "floatBufferViews",
      "target": 34963
    },
    {
      "buffer": 0,
      "byteLength": 1720896,
      "byteOffset": 815076,
      "byteStride": 8,
      "name": "floatBufferViews",
      "target": 34962
    },
    {
      "buffer": 0,
      "byteLength": 1290672,
      "byteOffset": 2535972,
      "byteStride": 12,
      "name": "floatBufferViews",
      "target": 34962
    },
    {
      "buffer": 0,
      "byteLength": 860448,
      "byteOffset": 3826644,
      "byteStride": 16,
      "name": "floatBufferViews",
      "target": 34962
    }
  ],
  "buffers": [
    {
      "byteLength": 4687092,
      "uri": "scene.bin"
    }
  ],
  "images": [
    {
      "uri": "textures/T_Billboard_Base_baseColor.png"
    },
    {
      "uri": "textures/T_Billboard_Base_metallicRoughness.png"
    },
    {
      "uri": "textures/T_Billboard_Base_normal.png"
    },
    {
      "uri": "textures/T_ThreeBoards_baseColor.png"
    },
    {
      "uri": "textures/T_ThreeBoards_metallicRoughness.png"
    },
    {
      "uri": "textures/T_ThreeBoards_normal.png"
    },
    {
      "uri": "textures/T_DishWireLadder_baseColor.png"
    },
    {
      "uri": "textures/T_DishWireLadder_metallicRoughness.png"
    },
    {
      "uri": "textures/T_DishWireLadder_normal.png"
    }
  ],
  "materials": [
    {
      "doubleSided": true,
      "name": "T_Billboard_Base",
      "normalTexture": {
        "index": 2,
        "texCoord": 2
      },
      "pbrMetallicRoughness": {
        "baseColorTexture": {
          "index": 0
        },
        "metallicRoughnessTexture": {
          "index": 1,
          "texCoord": 1
        }
      }
    },
    {
      "doubleSided": true,
      "name": "T_ThreeBoards",
      "normalTexture": {
        "index": 5,
        "texCoord": 2
      },
      "pbrMetallicRoughness": {
        "baseColorTexture": {
          "index": 3
        },
        "metallicRoughnessTexture": {
          "index": 4,
          "texCoord": 1
        }
      }
    },
    {
      "doubleSided": true,
      "name": "T_DishWireLadder",
      "normalTexture": {
        "index": 8
      },
      "pbrMetallicRoughness": {
        "baseColorTexture": {
          "index": 6
        },
        "metallicRoughnessTexture": {
          "index": 7
        }
      }
    }
  ],
  "meshes": [
    {
      "name": "Object_0",
      "primitives": [
        {
          "attributes": {
            "NORMAL": 1,
            "POSITION": 0,
            "TANGENT": 2,
            "TEXCOORD_0": 3,
            "TEXCOORD_1": 4,
            "TEXCOORD_2": 5,
            "TEXCOORD_3": 6
          },
          "indices": 7,
          "material": 0,
          "mode": 4
        }
      ]
    },
    {
      "name": "Object_1",
      "primitives": [
        {
          "attributes": {
            "NORMAL": 9,
            "POSITION": 8,
            "TANGENT": 10,
            "TEXCOORD_0": 11,
            "TEXCOORD_1": 12,
            "TEXCOORD_2": 13,
            "TEXCOORD_3": 14
          },
          "indices": 15,
          "material": 1,
          "mode": 4
        }
      ]
    },
    {
      "name": "Object_2",
      "primitives": [
        {
          "attributes": {
            "NORMAL": 17,
            "POSITION": 16,
            "TANGENT": 18,
            "TEXCOORD_0": 19,
            "TEXCOORD_1": 20,
            "TEXCOORD_2": 21,
            "TEXCOORD_3": 22
          },
          "indices": 23,
          "material": 2,
          "mode": 4
        }
      ]
    }
  ],
  "nodes": [
    {
      "children": [
        1
      ],
      "matrix": [
        1.0,
        0.0,
        0.0,
        0.0,
        0.0,
        2.220446049250313e-16,
        -1.0,
        0.0,
        0.0,
        1.0,
        2.220446049250313e-16,
        0.0,
        0.0,
        0.0,
        0.0,
        1.0
      ],
      "name": "Sketchfab_model"
    },
    {
      "children": [
        2
      ],
      "name": "root"
    },
    {
      "children": [
        3,
        5,
        7
      ],
      "matrix": [
        1.0,
        0.0,
        0.0,
        0.0,
        0.0,
        2.220446049250313e-16,
        1.0,
        0.0,
        0.0,
        -1.0,
        2.220446049250313e-16,
        0.0,
        0.0,
        0.0,
        0.0,
        1.0
      ],
      "name": "GLTF_SceneRootNode"
    },
    {
      "children": [
        4
      ],
      "name": "Cylinder_0"
    },
    {
      "mesh": 0,
      "name": "Object_4"
    },
    {
      "children": [
        6
      ],
      "name": "Three Boards Grp_1"
    },
    {
      "mesh": 1,
      "name": "Object_6"
    },
    {
      "children": [
        8
      ],
      "name": "Cylinder.036_3"
    },
    {
      "mesh": 2,
      "name": "Object_8"
    }
  ],
  "samplers": [
    {
      "magFilter": 9729,
      "minFilter": 9987,
      "wrapS": 10497,
      "wrapT": 10497
    }
  ],
  "scene": 0,
  "scenes": [
    {
      "name": "Sketchfab_Scene",
      "nodes": [
        0
      ]
    }
  ],
  "textures": [
    {
      "sampler": 0,
      "source": 0
    },
    {
      "sampler": 0,
      "source": 1
    },
    {
      "sampler": 0,
      "source": 2
    },
    {
      "sampler": 0,
      "source": 3
    },
    {
      "sampler": 0,
      "source": 4
    },
    {
      "sampler": 0,
      "source": 5
    },
    {
      "sampler": 0,
      "source": 6
    },
    {
      "sampler": 0,
      "source": 7
    },
    {
      "sampler": 0,
      "source": 8
    }
  ]
}
