{
  "accessors": [
    {
      "bufferView": 2,
      "componentType": 5126,
      "count": 65532,
      "max": [
        28.701868057250977,
        21.188156127929688,
        30.84632682800293
      ],
      "min": [
        -23.670928955078125,
        -1.561768889427185,
        0.9704706072807312
      ],
      "type": "VEC3"
    },
    {
      "bufferView": 2,
      "byteOffset": 786384,
      "componentType": 5126,
      "count": 65532,
      "max": [
        0.9999791383743286,
        0.9994301795959473,
        1.0
      ],
      "min": [
        -0.9999997019767761,
        -0.9999995827674866,
        -1.0
      ],
      "type": "VEC3"
    },
    {
      "bufferView": 1,
      "componentType": 5126,
      "count": 65532,
      "max": [
        0.9996828436851501,
        0.9851073026657104
      ],
      "min": [
        0.000244140625,
        0.0002539349952712655
      ],
      "type": "VEC2"
    },
    {
      "bufferView": 0,
      "componentType": 5125,
      "count": 298311,
      "type": "SCALAR"
    },
    {
      "bufferView": 2,
      "byteOffset": 1572768,
      "componentType": 5126,
      "count": 65532,
      "max": [
        28.840065002441406,
        20.179838180541992,
        31.014917373657227
      ],
      "min": [
        -20.176227569580078,
        -1.7749639749526978,
        -1.7263586521148682
      ],
      "type": "VEC3"
    },
    {
      "bufferView": 2,
      "byteOffset": 2359152,
      "componentType": 5126,
      "count": 65532,
      "max": [
        0.9999935626983643,
        0.9999624490737915,
        0.999999463558197
      ],
      "min": [
        -0.9999995231628418,
        -0.9999997615814209,
        -0.999984622001648
      ],
      "type": "VEC3"
    },
    {
      "bufferView": 1,
      "byteOffset": 524256,
      "componentType": 5126,
      "count": 65532,
      "max": [
        0.9997327327728271,
        0.9724119901657104
      ],
      "min": [
        0.000244140625,
        0.00029941333923488855
      ],
      "type": "VEC2"
    },
    {
      "bufferView": 0,
      "byteOffset": 1193244,
      "componentType": 5125,
      "count": 293856,
      "type": "SCALAR"
    },
    {
      "bufferView": 2,
      "byteOffset": 3145536,
      "componentType": 5126,
      "count": 65532,
      "max": [
        28.708160400390625,
        22.88478660583496,
        29.47281265258789
      ],
      "min": [
        -23.630477905273438,
        -1.8750783205032349,
        0.26094767451286316
      ],
      "type": "VEC3"
    },
    {
      "bufferView": 2,
      "byteOffset": 3931920,
      "componentType": 5126,
      "count": 65532,
      "max": [
        0.9999997019767761,
        0.9997811913490295,
        0.9999997019767761
      ],
      "min": [
        -0.9999980926513672,
        -1.0,
        -0.9999933242797852
      ],
      "type": "VEC3"
    },
    {
      "bufferView": 1,
      "byteOffset": 1048512,
      "componentType": 5126,
      "count": 65532,
      "max": [
        0.9996629953384399,
        0.9812010526657104
      ],
      "min": [
        0.000244140625,
        0.00025178922805935144
      ],
      "type": "VEC2"
    },
    {
      "bufferView": 0,
      "byteOffset": 2368668,
      "componentType": 5125,
      "count": 295995,
      "type": "SCALAR"
    },
    {
      "bufferView": 2,
      "byteOffset": 4718304,
      "componentType": 5126,
      "count": 65532,
      "max": [
        28.811887741088867,
        23.663921356201172,
        30.88304901123047
      ],
      "min": [
        -23.66079330444336,
        -1.9763997793197632,
        -2.0845789909362793
      ],
      "type": "VEC3"
    },
    {
      "bufferView": 2,
      "byteOffset": 5504688,
      "componentType": 5126,
      "count": 65532,
      "max": [
        0.9999986290931702,
        0.9997811913490295,
        0.9999999403953552
      ],
      "min": [
        -0.9999979734420776,
        -0.9999996423721313,
        -0.9999967217445374
      ],
      "type": "VEC3"
    },
    {
      "bufferView": 1,
      "byteOffset": 1572768,
      "componentType": 5126,
      "count": 65532,
      "max": [
        0.9997248649597168,
        0.9519041776657104
      ],
      "min": [
        0.000244140625,
        0.0002699686447158456
      ],
      "type": "VEC2"
    },
    {
      "bufferView": 0,
      "byteOffset": 3552648,
      "componentType": 5125,
      "count": 285822,
      "type": "SCALAR"
    },
    {
      "bufferView": 2,
      "byteOffset": 6291072,
      "componentType": 5126,
      "count": 65532,
      "max": [
        28.817995071411133,
        23.5189208984375,
        30.88304901123047
      ],
      "min": [
        -23.654359817504883,
        -1.8692653179168701,
        0.5140382647514343
      ],
      "type": "VEC3"
    },
    {
      "bufferView": 2,
      "byteOffset": 7077456,
      "componentType": 5126,
      "count": 65532,
      "max": [
        0.9999973177909851,
        0.9988325834274292,
        0.9999999403953552
      ],
      "min": [
        -0.9999997019767761,
        -0.9999997019767761,
        -0.9999971985816956
      ],
      "type": "VEC3"
    },
    {
      "bufferView": 1,
      "byteOffset": 2097024,
      "componentType": 5126,
      "count": 65532,
      "max": [
        0.9997205138206482,
        0.9768165946006775
      ],
      "min": [
        0.000244140625,
        0.00034340156707912683
      ],
      "type": "VEC2"
    },
    {
      "bufferView": 0,
      "byteOffset": 4695936,
      "componentType": 5125,
      "count": 278811,
      "type": "SCALAR"
    },
    {
      "bufferView": 2,
      "byteOffset": 7863840,
      "componentType": 5126,
      "count": 65532,
      "max": [
        28.5146427154541,
        20.677350997924805,
        30.81097412109375
      ],
      "min": [
        -23.68921661376953,
        -1.8966044187545776,
        0.3573625981807709
      ],
      "type": "VEC3"
    },
    {
      "bufferView": 2,
      "byteOffset": 8650224,
      "componentType": 5126,
      "count": 65532,
      "max": [
        0.9999997019767761,
        0.9999240040779114,
        0.9999989867210388
      ],
      "min": [
        -0.9999995231628418,
        -1.0,
        -0.9999961853027344
      ],
      "type": "VEC3"
    },
    {
      "bufferView": 1,
      "byteOffset": 2621280,
      "componentType": 5126,
      "count": 65532,
      "max": [
        0.9997509121894836,
        0.9763182401657104
      ],
      "min": [
        0.000244140625,
        0.00031520857010036707
      ],
      "type": "VEC2"
    },
    {
      "bufferView": 0,
      "byteOffset": 5811180,
      "componentType": 5125,
      "count": 266148,
      "type": "SCALAR"
    },
    {
      "bufferView": 2,
      "byteOffset": 9436608,
      "componentType": 5126,
      "count": 65532,
      "max": [
        28.688688278198242,
        26.406448364257813,
        31.27175521850586
      ],
      "min": [
        -23.50466537475586,
        -1.9196884632110596,
        -2.0845789909362793
      ],
      "type": "VEC3"
    },
    {
      "bufferView": 2,
      "byteOffset": 10222992,
      "componentType": 5126,
      "count": 65532,
      "max": [
        0.999992311000824,
        1.0,
        0.9999996423721313
      ],
      "min": [
        -0.9999985098838806,
        -1.0,
        -0.9999874234199524
      ],
      "type": "VEC3"
    },
    {
      "bufferView": 1,
      "byteOffset": 3145536,
      "componentType": 5126,
      "count": 65532,
      "max": [
        0.9997033476829529,
        0.9714354276657104
      ],
      "min": [
        0.000244140625,
        0.00025995506439357996
      ],
      "type": "VEC2"
    },
    {
      "bufferView": 0,
      "byteOffset": 6875772,
      "componentType": 5125,
      "count": 260214,
      "type": "SCALAR"
    },
    {
      "bufferView": 2,
      "byteOffset": 11009376,
      "componentType": 5126,
      "count": 65532,
      "max": [
        27.900510787963867,
        26.477615356445313,
        31.01533317565918
      ],
      "min": [
        -23.097702026367188,
        -1.8942703008651733,
        0.32120731472969055
      ],
      "type": "VEC3"
    },
    {
      "bufferView": 2,
      "byteOffset": 11795760,
      "componentType": 5126,
      "count": 65532,
      "max": [
        0.9999917149543762,
        0.9995445013046265,
        0.9999998211860657
      ],
      "min": [
        -0.9999713897705078,
        -0.9999997615814209,
        -0.9999992251396179
      ],
      "type": "VEC3"
    },
    {
      "bufferView": 1,
      "byteOffset": 3669792,
      "componentType": 5126,
      "count": 65532,
      "max": [
        0.9997509717941284,
        0.9772948026657104
      ],
      "min": [
        0.000244140625,
        0.00023444427642971277
      ],
      "type": "VEC2"
    },
    {
      "bufferView": 0,
      "byteOffset": 7916628,
      "componentType": 5125,
      "count": 242373,
      "type": "SCALAR"
    },
    {
      "bufferView": 2,
      "byteOffset": 12582144,
      "componentType": 5126,
      "count": 65534,
      "max": [
        28.840065002441406,
        26.406448364257813,
        31.27175521850586
      ],
      "min": [
        -23.6665096282959,
        -1.7772465944290161,
        -1.7263586521148682
      ],
      "type": "VEC3"
    },
    {
      "bufferView": 2,
      "byteOffset": 13368552,
      "componentType": 5126,
      "count": 65534,
      "max": [
        0.9999987483024597,
        0.9999624490737915,
        0.9999991655349731
      ],
      "min": [
        -0.9999939799308777,
        -0.9999998211860657,
        -0.9999938011169434
      ],
      "type": "VEC3"
    },
    {
      "bufferView": 1,
      "byteOffset": 4194048,
      "componentType": 5126,
      "count": 65534,
      "max": [
        0.9997128844261169,
        0.9663031101226807
      ],
      "min": [
        0.000244140625,
        0.00024606718216091394
      ],
      "type": "VEC2"
    },
    {
      "bufferView": 0,
      "byteOffset": 8886120,
      "componentType": 5125,
      "count": 226455,
      "type": "SCALAR"
    },
    {
      "bufferView": 2,
      "byteOffset": 14154960,
      "componentType": 5126,
      "count": 65532,
      "max": [
        28.75164794921875,
        26.438440322875977,
        30.604032516479492
      ],
      "min": [
        -23.621091842651367,
        -1.8749793767929077,
        0.7596582174301147
      ],
      "type": "VEC3"
    },
    {
      "bufferView": 2,
      "byteOffset": 14941344,
      "componentType": 5126,
      "count": 65532,
      "max": [
        0.9999982714653015,
        0.999933123588562,
        0.9999996423721313
      ],
      "min": [
        -0.9999997019767761,
        -0.9999984502792358,
        -0.9999774098396301
      ],
      "type": "VEC3"
    },
    {
      "bufferView": 1,
      "byteOffset": 4718320,
      "componentType": 5126,
      "count": 65532,
      "max": [
        0.999753475189209,
        0.9782713651657104
      ],
      "min": [
        0.000244140625,
        0.0002742005744948983
      ],
      "type": "VEC2"
    },
    {
      "bufferView": 0,
      "byteOffset": 9791940,
      "componentType": 5125,
      "count": 195591,
      "type": "SCALAR"
    },
    {
      "bufferView": 2,
      "byteOffset": 15727728,
      "componentType": 5126,
      "count": 65532,
      "max": [
        28.840065002441406,
        26.61090087890625,
        31.27175521850586
      ],
      "min": [
        -23.77142906188965,
        -1.9123846292495728,
        -2.0845789909362793
      ],
      "type": "VEC3"
    },
    {
      "bufferView": 2,
      "byteOffset": 16514112,
      "componentType": 5126,
      "count": 65532,
      "max": [
        0.9999966621398926,
        0.9999712109565735,
        0.9999997019767761
      ],
      "min": [
        -0.9999939799308777,
        -1.0,
        -0.9999979734420776
      ],
      "type": "VEC3"
    },
    {
      "bufferView": 1,
      "byteOffset": 5242576,
      "componentType": 5126,
      "count": 65532,
      "max": [
        0.9997521638870239,
        0.9616698026657104
      ],
      "min": [
        0.000244140625,
        0.0001892043510451913
      ],
      "type": "VEC2"
    },
    {
      "bufferView": 0,
      "byteOffset": 10574304,
      "componentType": 5125,
      "count": 186891,
      "type": "SCALAR"
    },
    {
      "bufferView": 2,
      "byteOffset": 17300496,
      "componentType": 5126,
      "count": 65532,
      "max": [
        28.811887741088867,
        24.353836059570313,
        30.596715927124023
      ],
      "min": [
        -23.654499053955078,
        -1.881679892539978,
        0.7628800272941589
      ],
      "type": "VEC3"
    },
    {
      "bufferView": 2,
      "byteOffset": 18086880,
      "componentType": 5126,
      "count": 65532,
      "max": [
        0.9999993443489075,
        0.9991751313209534,
        0.999999463558197
      ],
      "min": [
        -0.9999929070472717,
        -0.999998927116394,
        -1.0
      ],
      "type": "VEC3"
    },
    {
      "bufferView": 1,
      "byteOffset": 5766832,
      "componentType": 5126,
      "count": 65532,
      "max": [
        0.9997492432594299,
        0.973249077796936
      ],
      "min": [
        0.000244140625,
        0.0002476765075698495
      ],
      "type": "VEC2"
    },
    {
      "bufferView": 0,
      "byteOffset": 11321868,
      "componentType": 5125,
      "count": 159069,
      "type": "SCALAR"
    },
    {
      "bufferView": 2,
      "byteOffset": 18873264,
      "componentType": 5126,
      "count": 4429,
      "max": [
        25.116687774658203,
        19.645498275756836,
        30.760875701904297
      ],
      "min": [
        -22.453731536865234,
        -1.9041438102722168,
        0.6711310148239136
      ],
      "type": "VEC3"
    },
    {
      "bufferView": 2,
      "byteOffset": 18926412,
      "componentType": 5126,
      "count": 4429,
      "max": [
        0.9997292757034302,
        0.9914231896400452,
        0.9999708533287048
      ],
      "min": [
        -0.9999468326568604,
        -0.9999808669090271,
        -0.9996885657310486
      ],
      "type": "VEC3"
    },
    {
      "bufferView": 1,
      "byteOffset": 6291088,
      "componentType": 5126,
      "count": 4429,
      "max": [
        0.9997199773788452,
        0.9011229276657104
      ],
      "min": [
        0.000244140625,
        0.00026180280838161707
      ],
      "type": "VEC2"
    },
    {
      "bufferView": 0,
      "byteOffset": 11958144,
      "componentType": 5125,
      "count": 9474,
      "type": "SCALAR"
    }
  ],
  "asset": {
    "extras": {
      "author": "Miguel Bandera (https://sketchfab.com/miguelbandera)",
      "license": "SKETCHFAB Standard (https://sketchfab.com/licenses)",
      "source": "https://sketchfab.com/3d-models/japanese-pub-scan-f033a0934b9249158b073d15ea68b3cb",
      "title": "Japanese pub scan"
    },
    "generator": "Sketchfab-12.66.0",
    "version": "2.0"
  },
  "bufferViews": [
    {
      "buffer": 0,
      "byteLength": 11996040,
      "name": "floatBufferViews",
      "target": 34963
    },
    {
      "buffer": 0,
      "byteLength": 6326520,
      "byteOffset": 11996040,
      "byteStride": 8,
      "name": "floatBufferViews",
      "target": 34962
    },
    {
      "buffer": 0,
      "byteLength": 18979560,
      "byteOffset": 18322560,
      "byteStride": 12,
      "name": "floatBufferViews",
      "target": 34962
    }
  ],
  "buffers": [
    {
      "byteLength": 37302120,
      "uri": "scene.bin"
    }
  ],
  "extensionsUsed": [
    "KHR_materials_unlit"
  ],
  "images": [
    {
      "uri": "textures/tex_u1_v1_baseColor.jpeg"
    }
  ],
  "materials": [
    {
      "doubleSided": true,
      "extensions": {
        "KHR_materials_unlit": {}
      },
      "name": "tex_u1_v1",
      "pbrMetallicRoughness": {
        "baseColorTexture": {
          "index": 0
        },
        "metallicFactor": 0.0
      }
    }
  ],
  "meshes": [
    {
      "name": "Object_0",
      "primitives": [
        {
          "attributes": {
            "NORMAL": 1,
            "POSITION": 0,
            "TEXCOORD_0": 2
          },
          "indices": 3,
          "material": 0,
          "mode": 4
        }
      ]
    },
    {
      "name": "Object_1",
      "primitives": [
        {
          "attributes": {
            "NORMAL": 5,
            "POSITION": 4,
            "TEXCOORD_0": 6
          },
          "indices": 7,
          "material": 0,
          "mode": 4
        }
      ]
    },
    {
      "name": "Object_2",
      "primitives": [
        {
          "attributes": {
            "NORMAL": 9,
            "POSITION": 8,
            "TEXCOORD_0": 10
          },
          "indices": 11,
          "material": 0,
          "mode": 4
        }
      ]
    },
    {
      "name": "Object_3",
      "primitives": [
        {
          "attributes": {
            "NORMAL": 13,
            "POSITION": 12,
            "TEXCOORD_0": 14
          },
          "indices": 15,
          "material": 0,
          "mode": 4
        }
      ]
    },
    {
      "name": "Object_4",
      "primitives": [
        {
          "attributes": {
            "NORMAL": 17,
            "POSITION": 16,
            "TEXCOORD_0": 18
          },
          "indices": 19,
          "material": 0,
          "mode": 4
        }
      ]
    },
    {
      "name": "Object_5",
      "primitives": [
        {
          "attributes": {
            "NORMAL": 21,
            "POSITION": 20,
            "TEXCOORD_0": 22
          },
          "indices": 23,
          "material": 0,
          "mode": 4
        }
      ]
    },
    {
      "name": "Object_6",
      "primitives": [
        {
          "attributes": {
            "NORMAL": 25,
            "POSITION": 24,
            "TEXCOORD_0": 26
          },
          "indices": 27,
          "material": 0,
          "mode": 4
        }
      ]
    },
    {
      "name": "Object_7",
      "primitives": [
        {
          "attributes": {
            "NORMAL": 29,
            "POSITION": 28,
            "TEXCOORD_0": 30
          },
          "indices": 31,
          "material": 0,
          "mode": 4
        }
      ]
    },
    {
      "name": "Object_8",
      "primitives": [
        {
          "attributes": {
            "NORMAL": 33,
            "POSITION": 32,
            "TEXCOORD_0": 34
          },
          "indices": 35,
          "material": 0,
          "mode": 4
        }
      ]
    },
    {
      "name": "Object_9",
      "primitives": [
        {
          "attributes": {
            "NORMAL": 37,
            "POSITION": 36,
            "TEXCOORD_0": 38
          },
          "indices": 39,
          "material": 0,
          "mode": 4
        }
      ]
    },
    {
      "name": "Object_10",
      "primitives": [
        {
          "attributes": {
            "NORMAL": 41,
            "POSITION": 40,
            "TEXCOORD_0": 42
          },
          "indices": 43,
          "material": 0,
          "mode": 4
        }
      ]
    },
    {
      "name": "Object_11",
      "primitives": [
        {
          "attributes": {
            "NORMAL": 45,
            "POSITION": 44,
            "TEXCOORD_0": 46
          },
          "indices": 47,
          "material": 0,
          "mode": 4
        }
      ]
    },
    {
      "name": "Object_12",
      "primitives": [
        {
          "attributes": {
            "NORMAL": 49,
            "POSITION": 48,
            "TEXCOORD_0": 50
          },
          "indices": 51,
          "material": 0,
          "mode": 4
        }
      ]
    }
  ],
  "nodes": [
    {
      "children": [
        1
      ],
      "matrix": [
        1.0,
        0.0,
        0.0,
        0.0,
        0.0,
        2.220446049250313e-16,
        -1.0,
        0.0,
        0.0,
        1.0,
        2.220446049250313e-16,
        0.0,
        0.0,
        0.0,
        0.0,
        1.0
      ],
      "name": "Sketchfab_model"
    },
    {
      "children": [
        2,
        3,
        4,
        5,
        6,
        7,
        8,
        9,
        10,
        11,
        12,
        13,
        14
      ],
      "name": "model.obj.cleaner.materialmerger.gles"
    },
    {
      "mesh": 0,
      "name": "Object_2"
    },
    {
      "mesh": 1,
      "name": "Object_3"
    },
    {
      "mesh": 2,
      "name": "Object_4"
    },
    {
      "mesh": 3,
      "name": "Object_5"
    },
    {
      "mesh": 4,
      "name": "Object_6"
    },
    {
      "mesh": 5,
      "name": "Object_7"
    },
    {
      "mesh": 6,
      "name": "Object_8"
    },
    {
      "mesh": 7,
      "name": "Object_9"
    },
    {
      "mesh": 8,
      "name": "Object_10"
    },
    {
      "mesh": 9,
      "name": "Object_11"
    },
    {
      "mesh": 10,
      "name": "Object_12"
    },
    {
      "mesh": 11,
      "name": "Object_13"
    },
    {
      "mesh": 12,
      "name": "Object_14"
    }
  ],
  "samplers": [
    {
      "magFilter": 9729,
      "minFilter": 9987,
      "wrapS": 10497,
      "wrapT": 10497
    }
  ],
  "scene": 0,
  "scenes": [
    {
      "name": "Sketchfab_Scene",
      "nodes": [
        0
      ]
    }
  ],
  "textures": [
    {
      "sampler": 0,
      "source": 0
    }
  ]
}
